<svg
  width="1.7rem"
  height=".9rem"
  viewBox="0 0 17 9"
  fill="none"
  xmlns="http://www.w3.org/2000/svg"
>
  <path
    d="M0.758523 9V0.272727H4.2017C4.8608 0.272727 5.4233 0.390625 5.8892 0.62642C6.35795 0.859375 6.71449 1.19034 6.95881 1.61932C7.20597 2.04545 7.32955 2.54687 7.32955 3.12358C7.32955 3.70312 7.20455 4.2017 6.95455 4.61932C6.70455 5.03409 6.34233 5.35227 5.8679 5.57386C5.39631 5.79545 4.82528 5.90625 4.15483 5.90625H1.84943V4.4233H3.85653C4.20881 4.4233 4.50142 4.375 4.73438 4.27841C4.96733 4.18182 5.14063 4.03693 5.25426 3.84375C5.37074 3.65057 5.42898 3.41051 5.42898 3.12358C5.42898 2.83381 5.37074 2.58949 5.25426 2.39062C5.14063 2.19176 4.96591 2.04119 4.73011 1.93892C4.49716 1.83381 4.20313 1.78125 3.84801 1.78125H2.60369V9H0.758523ZM5.47159 5.02841L7.64062 9H5.60369L3.48153 5.02841H5.47159ZM10.1378 9H8.16051L11.1733 0.272727H13.5511L16.5597 9H14.5824L12.3963 2.26705H12.3281L10.1378 9ZM10.0142 5.5696H14.6847V7.00994H10.0142V5.5696Z"
    fill="#5eafd0"
  />
</svg>
